<?xml version="1.0" encoding="utf-8"?>
<!-- Generator: Adobe Illustrator 24.1.0, SVG Export Plug-In . SVG Version: 6.00 Build 0)  -->
<svg version="1.1" id="Layer_1" xmlns="http://www.w3.org/2000/svg" xmlns:xlink="http://www.w3.org/1999/xlink" x="0px" y="0px"
	 viewBox="0 0 655.2 900" style="enable-background:new 0 0 655.2 900;" xml:space="preserve">
<path d="M531.1,123.6l51.3,0.6c30.8,0.2,51.1-0.2,51.1-1.3c0-1-22.4-23.6-49.8-50.4c-27.4-26.6-50.7-48.8-51.7-49
	c-1.3-0.6-1.7,16.7-1.5,49.8L531.1,123.6z"/>
<path d="M581.4,165c-63.5,0-74.8-0.4-79.8-3.1c-10.9-5.5-11.3-8.6-11.3-88.8V0L250.5,0.2C118.5,0.2,1.3,3.6-0.2,4.2
	C-8,7.1,0-11.1,0,451.2c0,400,0.4,443.1,3.1,445.8s34.7,3.1,324.4,3.1h321.8l2.9-4.2c2.7-3.6,3.1-43.8,3.1-367.5V165H581.4z
	 M407.2,337.1c5.9-4.8,14.9-4.8,22.6-0.2c5.2,3.1,8.6,10.5,29.5,62.2c13,32.2,24.3,58,25.1,57.1c0.6-0.8,11.5-27.2,23.9-58.6
	c19.9-50.2,23.6-57.8,28.5-60.9c8.2-5,16.9-4.4,23.7,1.5c11.3,9.4,11.5,9-25.7,101.8c-25.7,63.9-35,85.6-38.7,88.5
	c-7.1,5.6-19.7,5.2-25.6-0.8c-2.9-2.9-17.4-36-37.7-86c-18.4-44.8-33.7-83.3-34.3-85.4C397.3,350.9,401.3,341.7,407.2,337.1z
	 M273.6,331.9c23.5-8,49.2-4.6,73.7,10c17.2,10.1,23.9,18.2,23.9,28.1c-0.2,12.5-8.4,20.7-20.9,20.7c-3.8,0-8.6-2.5-15.7-8.6
	c-16.3-14-32.7-17.4-53.4-11.3c-13.4,4-28.5,18.8-33.3,32.4c-6.7,19.9-5.8,43.8,2.9,60.5c15.7,31,59.2,38.3,84.1,14.2
	c9-8.8,16.1-11.3,24.1-8.6c14.9,5,18.8,21.2,8,33.7c-15.3,17.4-42.9,29.5-67.6,29.5c-25.8,0-46.7-9.6-66.4-30.2
	c-12.3-12.8-19.1-24.1-24.5-39.8C190.5,410.2,220.6,349.9,273.6,331.9z M100.1,614.7c6.1-2.5,447.2-2.3,454.5,0.2
	c7.7,2.7,12.4,10.2,12.4,19.7c0,6.1-1.2,8.6-6.1,13L555,653H327H99l-5.5-5.5C83.9,637.7,87.5,619.9,100.1,614.7z M559.4,773.4
	c-4.8,3.8-7.3,3.8-232,3.8c-212.3,0-227.3-0.4-231.1-3.5c-10.5-8.4-11.3-20.9-1.9-30.2l6.5-6.5H326c250.2,0,234.2-1,239.7,12.8
	C569.4,758.1,566.7,767.6,559.4,773.4z"/>
</svg>
