<?xml version="1.0" encoding="utf-8"?>
<!-- Generator: Adobe Illustrator 24.1.0, SVG Export Plug-In . SVG Version: 6.00 Build 0)  -->
<svg version="1.1" id="Layer_1" xmlns="http://www.w3.org/2000/svg" xmlns:xlink="http://www.w3.org/1999/xlink" x="0px" y="0px"
	 viewBox="0 0 138.6 160" style="enable-background:new 0 0 138.6 160;" xml:space="preserve">
<style type="text/css">
	.st0{fill:#FFFFFF;stroke:#000000;stroke-miterlimit:10;}
	.st1{fill:#36A2EB;}
	.st2{fill:#FFCE56;}
	.st3{opacity:0.8;fill:#FE6184;enable-background:new    ;}
	.st4{fill:#E7E9ED;}
</style>
<polygon class="st0" points="131.7,40.1 131.6,113.3 68.3,150 5.1,113.5 5.2,40.3 68.5,3.6 "/>
<path class="st1" d="M134.6,80.6c-22.4,0.4-17.7,14.6-33.5,18.2c-16,3.6-18.5-39.1-34.6-39.1c-16,0-19.6,41.5-39.6,70l-0.6,0.8
	l43,24.8l65.2-37.7V80.6z"/>
<path class="st2" d="M134.6,79.3c-7.5-9.6-12.6-20.7-23.5-20.7c-19.3,0-14.2,31.5-35.6,31.5c-21.4,0-23.6-33.9-47.8-2
	c-7.7,10.2-13.9,21.5-18.8,32.2l60.5,34.9l65.2-37.7V79.3z"/>
<path class="st3" d="M4.1,92.3C11.5,72,14.6,55.6,28.6,55.6c21.4,0,26.5,60,44.8,53.9c18.3-6.1,16.3-38.7,44.8-38.7
	c5.4,0,11,3.3,16.4,8.7v38.1l-65.2,37.7L4.1,117.6L4.1,92.3L4.1,92.3z"/>
<path class="st4" d="M69.3,160L0,120V40L69.3,0l69.3,40v80L69.3,160z M8.1,115.3l61.2,35.3l61.2-35.3V44.7L69.3,9.4L8.1,44.7V115.3z
	"/>
</svg>
