<?xml version="1.0" encoding="utf-8"?>
<!-- Generator: Adobe Illustrator 24.1.0, SVG Export Plug-In . SVG Version: 6.00 Build 0)  -->
<svg version="1.1" id="Layer_1" xmlns="http://www.w3.org/2000/svg" xmlns:xlink="http://www.w3.org/1999/xlink" x="0px" y="0px"
	 viewBox="0 0 178.9 180.8" style="enable-background:new 0 0 178.9 180.8;" xml:space="preserve">
<style type="text/css">
	.st0{fill:#FFFFFF;stroke:#FFFFFF;stroke-miterlimit:10;}
	.st1{fill-rule:evenodd;clip-rule:evenodd;fill:#5382A1;}
	.st2{fill-rule:evenodd;clip-rule:evenodd;fill:#E76F00;}
</style>
<circle class="st0" cx="89.5" cy="89.5" r="89.5"/>
<g>
	<path class="st1" d="M73.1,112.8c0,0-4.7,2.7,3.3,3.7c9.7,1.1,14.7,0.9,25.4-1.1c0,0,2.8,1.8,6.8,3.3
		C84.5,129,54.2,118.1,73.1,112.8L73.1,112.8z"/>
	<path class="st1" d="M70.1,99.3c0,0-5.3,3.9,2.8,4.7c10.4,1.1,18.6,1.2,32.8-1.6c0,0,2,2,5.1,3.1C81.7,114.1,49.3,106.2,70.1,99.3
		L70.1,99.3z"/>
	<path class="st2" d="M94.9,76.5c5.9,6.8-1.6,13-1.6,13s15.1-7.8,8.1-17.5c-6.5-9.1-11.4-13.6,15.4-29.1
		C116.9,42.8,74.8,53.3,94.9,76.5L94.9,76.5z"/>
	<path class="st1" d="M126.7,122.7c0,0,3.5,2.9-3.8,5.1c-13.9,4.2-57.8,5.5-70,0.2c-4.4-1.9,3.8-4.6,6.4-5.1
		c2.7-0.6,4.2-0.5,4.2-0.5C58.7,119,32,129.1,50,132C99.1,140,139.4,128.5,126.7,122.7L126.7,122.7z"/>
	<path class="st1" d="M75.3,85.4c0,0-22.3,5.3-7.9,7.2c6.1,0.8,18.2,0.6,29.5-0.3c9.2-0.8,18.5-2.4,18.5-2.4s-3.3,1.4-5.6,3
		c-22.7,6-66.5,3.2-53.9-2.9C66.6,84.8,75.3,85.4,75.3,85.4L75.3,85.4z"/>
	<path class="st1" d="M115.4,107.8c23-12,12.4-23.5,4.9-21.9c-1.8,0.4-2.6,0.7-2.6,0.7s0.7-1.1,2-1.5c14.7-5.2,26,15.3-4.8,23.4
		C114.9,108.4,115.3,108.1,115.4,107.8L115.4,107.8z"/>
	<path class="st2" d="M101.5,17.7c0,0,12.8,12.8-12.1,32.4c-20,15.8-4.6,24.7,0,35C77.7,74.7,69.2,65.4,74.9,56.8
		C83.3,44.2,106.6,38,101.5,17.7L101.5,17.7z"/>
	<path class="st1" d="M77.6,140.2c22.1,1.4,56.1-0.8,56.9-11.3c0,0-1.6,4-18.3,7.1c-18.9,3.6-42.2,3.1-56,0.9
		C60.2,137,63,139.3,77.6,140.2L77.6,140.2z"/>
</g>
</svg>
