<?xml version="1.0" encoding="utf-8"?>
<!-- Generator: Adobe Illustrator 24.1.0, SVG Export Plug-In . SVG Version: 6.00 Build 0)  -->
<svg version="1.1" id="Layer_1" xmlns="http://www.w3.org/2000/svg" xmlns:xlink="http://www.w3.org/1999/xlink" x="0px" y="0px"
	 viewBox="0 0 3052.8 3088.3" style="enable-background:new 0 0 3052.8 3088.3;" xml:space="preserve">
<style type="text/css">
	.st0{fill:#FFFFFF;stroke:#FFFFFF;stroke-miterlimit:10;}
	.st1{fill:#77BC1F;}
</style>
<circle class="st0" cx="1526.4" cy="1526.4" r="1526.4"/>
<path class="st1" d="M2531.8,424.4c-35.2,84-79.7,163.7-133.4,236.9c-235-235-554-367.1-886.3-367.1
	C824.7,294.2,259,860.5,259,1548.9c0,343.4,140.6,672.1,389.3,909.1l46.2,41c225.9,190.4,512,295.2,807.2,295.2
	c653.6,0,1203-512.3,1249.5-1165.2C2785.4,1309.3,2691.6,905.1,2531.8,424.4L2531.8,424.4z M826.3,2465.1
	c-20.2,25.1-51.1,39.7-83.3,39.7c-58.9,0-107.1-48.5-107.1-107.4c0-58.9,48.5-107.4,107.1-107.4c24.4,0,48.5,8.5,67.4,24.1
	C856.3,2351.2,863.4,2419.2,826.3,2465.1L826.3,2465.1z M2526.6,2089.5c-309.2,412.4-969.6,273.4-1393,293.3
	c0,0-75.2,4.6-150.7,16.9c0,0,28.3-12,65.1-26c297.2-103.5,437.8-123.7,618.4-216.4c340.1-173.2,676.3-552,746.3-946.2
	c-129.5,379.2-522.1,705-879.8,837.4c-245.1,90.5-687.7,178.4-687.7,178.4l-17.9-9.4c-301.4-146.8-310.5-800,237.3-1010.9
	c239.9-92.4,469.3-41.7,728.4-103.5c276.7-65.7,596.6-273.4,726.8-544.2C2665.6,992,2841,1670.3,2526.6,2089.5L2526.6,2089.5z"/>
</svg>
